<?xml version="1.0" standalone="no"?>
<!DOCTYPE svg PUBLIC "-//W3C//DTD SVG 20010904//EN"
 "http://www.w3.org/TR/2001/REC-SVG-20010904/DTD/svg10.dtd">
<svg version="1.0" xmlns="http://www.w3.org/2000/svg"
 width="1230.000000pt" height="1280.000000pt" viewBox="0 0 1230.000000 1280.000000"
 preserveAspectRatio="xMidYMid meet">
<metadata>
Created by potrace 1.15, written by Peter Selinger 2001-2017
</metadata>
<g transform="translate(0.000000,1280.000000) scale(0.100000,-0.100000)"
fill="#000000" stroke="none">
<path d="M5375 12793 c-23 -6 -209 -112 -272 -154 -69 -47 -78 -79 -108 -379
-25 -254 -163 -1611 -225 -2215 -16 -159 -72 -711 -125 -1225 -52 -514 -112
-1105 -133 -1313 -22 -208 -43 -382 -48 -386 -5 -5 -992 -577 -2194 -1271
-1202 -694 -2196 -1271 -2209 -1283 -55 -50 -61 -83 -61 -327 0 -244 7 -278
61 -326 24 -21 6637 -3843 6733 -3892 97 -49 -97 -153 2503 1349 1297 748
2370 1372 2385 1386 15 14 34 40 42 57 10 22 98 905 297 2994 l282 2964 -19
45 c-10 25 -35 58 -54 74 -33 26 -6625 3837 -6721 3886 -44 22 -89 27 -134 16z
m67 -546 c40 -24 1486 -860 3213 -1857 1727 -997 3141 -1814 3142 -1814 1 -1
-34 -350 -77 -776 -44 -426 -100 -977 -125 -1225 -25 -247 -54 -535 -65 -640
-11 -104 -62 -611 -115 -1125 -52 -514 -108 -1062 -124 -1218 -15 -155 -30
-285 -33 -287 -4 -4 -6404 3688 -6422 3705 -5 5 5 142 23 317 43 427 194 1906
236 2318 19 187 73 718 120 1180 47 462 99 970 115 1130 17 159 30 300 30 312
0 13 2 23 4 23 2 0 37 -19 78 -43z m-214 -5678 c268 -155 964 -557 1547 -894
583 -337 1670 -965 2415 -1395 745 -430 1491 -861 1658 -958 166 -96 301 -177
298 -179 -3 -3 -965 -560 -2138 -1237 l-2133 -1232 -160 92 c-88 51 -1528 882
-3200 1848 -1671 966 -3044 1758 -3050 1760 -6 3 -4 9 5 15 39 26 4256 2461
4263 2461 4 0 227 -127 495 -281z m-1625 -4216 c2796 -1615 3237 -1867 3272
-1868 35 0 302 152 2269 1288 1226 709 2235 1291 2241 1293 9 4 10 -6 6 -32
l-6 -37 -2255 -1303 -2254 -1302 -47 27 c-25 14 -1491 861 -3257 1881 l-3212
1855 0 33 c0 17 3 32 6 32 3 0 1460 -840 3237 -1867z"/>
<path d="M4605 6446 c-81 -36 -1674 -962 -1697 -987 -34 -36 -36 -74 -5 -111
12 -15 1225 -721 2792 -1626 1524 -879 2784 -1607 2802 -1616 18 -9 42 -16 55
-16 22 0 1706 965 1736 994 8 7 16 31 19 53 4 32 1 44 -18 65 -27 29 -5590
3244 -5629 3252 -14 3 -38 0 -55 -8z m2712 -1727 c1467 -847 2680 -1548 2695
-1557 l26 -17 -736 -425 c-405 -234 -745 -425 -757 -424 -11 0 -1046 593
-2300 1318 -1254 725 -2461 1422 -2682 1549 -221 128 -402 234 -403 237 0 6
1470 859 1482 860 4 0 1207 -693 2675 -1541z"/>
<path d="M3487 3871 c-313 -180 -575 -335 -583 -343 -8 -8 -17 -30 -20 -50 -5
-29 -1 -40 22 -66 38 -40 2249 -1315 2289 -1320 25 -3 132 55 590 318 338 194
573 336 594 357 28 30 32 40 27 66 -4 18 -17 42 -29 54 -12 11 -526 312 -1141
667 -820 473 -1128 646 -1150 646 -22 0 -193 -94 -599 -329z m1642 -465 c551
-319 998 -583 994 -587 -23 -22 -916 -530 -927 -527 -20 5 -2036 1171 -2036
1177 1 3 209 126 463 272 404 233 465 265 483 255 11 -6 472 -272 1023 -590z"/>
</g>
</svg>
